<svg width="1280" height="720" xmlns="http://www.w3.org/2000/svg" xmlns:xlink="http://www.w3.org/1999/xlink" overflow="hidden"><defs><linearGradient x1="6.44913" y1="163.799" x2="195.551" y2="311.201" gradientUnits="userSpaceOnUse" spreadMethod="reflect" id="fill0"><stop offset="0" stop-color="#011B29"/><stop offset="1" stop-color="#1B6488"/></linearGradient><linearGradient x1="293" y1="138" x2="293" y2="333" gradientUnits="userSpaceOnUse" spreadMethod="reflect" id="fill1"><stop offset="0" stop-color="#011B29"/><stop offset="1" stop-color="#1B6488"/></linearGradient><linearGradient x1="505.5" y1="138" x2="505.5" y2="333" gradientUnits="userSpaceOnUse" spreadMethod="reflect" id="fill2"><stop offset="0" stop-color="#011B29"/><stop offset="1" stop-color="#1B6488"/></linearGradient><linearGradient x1="720.5" y1="137" x2="720.5" y2="332" gradientUnits="userSpaceOnUse" spreadMethod="reflect" id="fill3"><stop offset="0" stop-color="#011B29"/><stop offset="1" stop-color="#1B6488"/></linearGradient><linearGradient x1="932.5" y1="137" x2="932.5" y2="332" gradientUnits="userSpaceOnUse" spreadMethod="reflect" id="fill4"><stop offset="0" stop-color="#011B29"/><stop offset="1" stop-color="#1B6488"/></linearGradient><linearGradient x1="1142.5" y1="252" x2="1142.5" y2="333" gradientUnits="userSpaceOnUse" spreadMethod="reflect" id="fill5"><stop offset="0" stop-color="#011B29"/><stop offset="1" stop-color="#1B6488"/></linearGradient><linearGradient x1="1142.5" y1="138" x2="1142.5" y2="219" gradientUnits="userSpaceOnUse" spreadMethod="reflect" id="fill6"><stop offset="0" stop-color="#011B29"/><stop offset="1" stop-color="#1B6488"/></linearGradient><linearGradient x1="892" y1="524" x2="892" y2="644" gradientUnits="userSpaceOnUse" spreadMethod="reflect" id="fill7"><stop offset="0" stop-color="#011B29"/><stop offset="1" stop-color="#1B6488"/></linearGradient><linearGradient x1="1020" y1="527" x2="1020" y2="644" gradientUnits="userSpaceOnUse" spreadMethod="reflect" id="fill8"><stop offset="0" stop-color="#011B29"/><stop offset="1" stop-color="#1B6488"/></linearGradient><linearGradient x1="1148" y1="527" x2="1148" y2="644" gradientUnits="userSpaceOnUse" spreadMethod="reflect" id="fill9"><stop offset="0" stop-color="#011B29"/><stop offset="1" stop-color="#1B6488"/></linearGradient><linearGradient x1="478.5" y1="524" x2="478.5" y2="638" gradientUnits="userSpaceOnUse" spreadMethod="reflect" id="fill10"><stop offset="0" stop-color="#011B29"/><stop offset="1" stop-color="#1B6488"/></linearGradient><linearGradient x1="593.5" y1="525" x2="593.5" y2="639" gradientUnits="userSpaceOnUse" spreadMethod="reflect" id="fill11"><stop offset="0" stop-color="#011B29"/><stop offset="1" stop-color="#1B6488"/></linearGradient><linearGradient x1="711.5" y1="525" x2="711.5" y2="639" gradientUnits="userSpaceOnUse" spreadMethod="reflect" id="fill12"><stop offset="0" stop-color="#011B29"/><stop offset="1" stop-color="#1B6488"/></linearGradient></defs><g><rect x="0" y="0" width="1280" height="720" fill="#FFFFFF"/><path d="M801.5 499.834C801.5 478.663 818.663 461.5 839.834 461.5L1203.17 461.5C1224.34 461.5 1241.5 478.663 1241.5 499.834L1241.5 653.166C1241.5 674.337 1224.34 691.5 1203.17 691.5L839.834 691.5C818.663 691.5 801.5 674.337 801.5 653.166Z" stroke="#000000" stroke-linejoin="round" stroke-miterlimit="10" stroke-dasharray="4 3" fill="none" fill-rule="evenodd"/><text font-family="Bahnschrift Light,Bahnschrift Light_MSFontService,sans-serif" font-weight="300" font-size="21" transform="translate(865.071 498)">Search, Analytics and Reasoning</text><path d="M408.5 89.5008C408.5 57.4679 434.468 31.5001 466.501 31.5001L1182.5 31.5001C1214.53 31.5001 1240.5 57.4679 1240.5 89.5008L1240.5 321.499C1240.5 353.532 1214.53 379.5 1182.5 379.5L466.501 379.5C434.468 379.5 408.5 353.532 408.5 321.499Z" stroke="#000000" stroke-linejoin="round" stroke-miterlimit="10" stroke-dasharray="4 3" fill="none" fill-rule="evenodd"/><path d="M25 165.334C25 151.342 36.3423 140 50.3338 140L151.666 140C165.658 140 177 151.342 177 165.334L177 309.666C177 323.658 165.658 335 151.666 335L50.3338 335C36.3423 335 25 323.658 25 309.666Z" fill="url(#fill0)" fill-rule="evenodd"/><text fill="#FFFFFF" font-family="Bahnschrift Light,Bahnschrift Light_MSFontService,sans-serif" font-weight="300" font-size="21" transform="translate(52.3637 173)">Document</text><text fill="#FFFFFF" font-family="Bahnschrift Light,Bahnschrift Light_MSFontService,sans-serif" font-weight="300" font-size="21" transform="translate(56.9437 199)">Ingestion</text><text fill="#FFFFFF" font-family="Bahnschrift Light,Bahnschrift Light_MSFontService,sans-serif" font-weight="300" font-size="15" transform="translate(45.9437 235)">Feed Documents</text><text fill="#FFFFFF" font-family="Bahnschrift Light,Bahnschrift Light_MSFontService,sans-serif" font-weight="300" font-size="15" transform="translate(53.6971 253)">from business</text><text fill="#FFFFFF" font-family="Bahnschrift Light,Bahnschrift Light_MSFontService,sans-serif" font-weight="300" font-size="15" transform="translate(74.3637 271)">sources</text><path d="M208 166.334C208 150.686 220.686 138 236.334 138L349.666 138C365.314 138 378 150.686 378 166.334L378 304.666C378 320.315 365.314 333 349.666 333L236.334 333C220.686 333 208 320.315 208 304.666Z" fill="url(#fill1)" fill-rule="evenodd"/><text fill="#FFFFFF" font-family="Bahnschrift Light,Bahnschrift Light_MSFontService,sans-serif" font-weight="300" font-size="21" transform="translate(244.521 172)">Document</text><text fill="#FFFFFF" font-family="Bahnschrift Light,Bahnschrift Light_MSFontService,sans-serif" font-weight="300" font-size="21" transform="translate(228.935 198)">Classification</text><text fill="#FFFFFF" font-family="Bahnschrift Light,Bahnschrift Light_MSFontService,sans-serif" font-weight="300" font-size="15" transform="translate(229.021 234)">Classify documents</text><text fill="#FFFFFF" font-family="Bahnschrift Light,Bahnschrift Light_MSFontService,sans-serif" font-weight="300" font-size="15" transform="translate(232.855 252)">based on category</text><path d="M425 164.834C425 150.014 437.014 138 451.834 138L559.166 138C573.986 138 586 150.014 586 164.834L586 306.166C586 320.986 573.986 333 559.166 333L451.834 333C437.014 333 425 320.986 425 306.166Z" fill="url(#fill2)" fill-rule="evenodd"/><text fill="#FFFFFF" font-family="Bahnschrift Light,Bahnschrift Light_MSFontService,sans-serif" font-weight="300" font-size="21" transform="translate(483.439 172)">Data</text><text fill="#FFFFFF" font-family="Bahnschrift Light,Bahnschrift Light_MSFontService,sans-serif" font-weight="300" font-size="21" transform="translate(456.272 198)">Extraction</text><text fill="#FFFFFF" font-family="Bahnschrift Light,Bahnschrift Light_MSFontService,sans-serif" font-weight="300" font-size="15" transform="translate(444.772 234)">Extract structured</text><text fill="#FFFFFF" font-family="Bahnschrift Light,Bahnschrift Light_MSFontService,sans-serif" font-weight="300" font-size="15" transform="translate(448.519 252)">and unstructured</text><text fill="#FFFFFF" font-family="Bahnschrift Light,Bahnschrift Light_MSFontService,sans-serif" font-weight="300" font-size="15" transform="translate(461.939 270)">data, objects,</text><text fill="#FFFFFF" font-family="Bahnschrift Light,Bahnschrift Light_MSFontService,sans-serif" font-weight="300" font-size="15" transform="translate(448.105 287)">natural language,</text><text fill="#FFFFFF" font-family="Bahnschrift Light,Bahnschrift Light_MSFontService,sans-serif" font-weight="300" font-size="15" transform="translate(451.186 305)">handwritten text</text><path d="M640 163.834C640 149.014 652.014 137 666.834 137L774.166 137C788.986 137 801 149.014 801 163.834L801 305.166C801 319.986 788.986 332 774.166 332L666.834 332C652.014 332 640 319.986 640 305.166Z" fill="url(#fill3)" fill-rule="evenodd"/><text fill="#FFFFFF" font-family="Bahnschrift Light,Bahnschrift Light_MSFontService,sans-serif" font-weight="300" font-size="21" transform="translate(698.516 171)">Data</text><text fill="#FFFFFF" font-family="Bahnschrift Light,Bahnschrift Light_MSFontService,sans-serif" font-weight="300" font-size="21" transform="translate(664.929 197)">Enrichment</text><text fill="#FFFFFF" font-family="Bahnschrift Light,Bahnschrift Light_MSFontService,sans-serif" font-weight="300" font-size="15" transform="translate(685.096 233)">Contextual</text><text fill="#FFFFFF" font-family="Bahnschrift Light,Bahnschrift Light_MSFontService,sans-serif" font-weight="300" font-size="15" transform="translate(680.763 251)">Enrichment,</text><text fill="#FFFFFF" font-family="Bahnschrift Light,Bahnschrift Light_MSFontService,sans-serif" font-weight="300" font-size="15" transform="translate(659.429 269)">Derived attributes,</text><path d="M852 163.834C852 149.014 864.014 137 878.834 137L986.166 137C1000.99 137 1013 149.014 1013 163.834L1013 305.166C1013 319.986 1000.99 332 986.166 332L878.834 332C864.014 332 852 319.986 852 305.166Z" fill="url(#fill4)" fill-rule="evenodd"/><text fill="#FFFFFF" font-family="Bahnschrift Light,Bahnschrift Light_MSFontService,sans-serif" font-weight="300" font-size="21" transform="translate(879.104 171)">Confidence</text><text fill="#FFFFFF" font-family="Bahnschrift Light,Bahnschrift Light_MSFontService,sans-serif" font-weight="300" font-size="21" transform="translate(887.271 197)">based QC</text><text fill="#FFFFFF" font-family="Bahnschrift Light,Bahnschrift Light_MSFontService,sans-serif" font-weight="300" font-size="15" transform="translate(888.938 233)">Is confidence</text><text fill="#FFFFFF" font-family="Bahnschrift Light,Bahnschrift Light_MSFontService,sans-serif" font-weight="300" font-size="15" transform="translate(870.438 251)">below the selected</text><text fill="#FFFFFF" font-family="Bahnschrift Light,Bahnschrift Light_MSFontService,sans-serif" font-weight="300" font-size="15" transform="translate(877.691 269)">threshold? (90%)</text><path d="M0.0101574-0.666589 47.7261 0.0604983 47.7058 1.39368-0.0101574 0.666589ZM46.4437-3.29276 54.3818 0.828661 46.3218 4.70631Z" transform="matrix(1 0 0 -1 586.5 236.329)"/><path d="M801.503 234.833 845.986 235.037 845.98 236.37 801.497 236.167ZM844.668 231.698 852.65 235.734 844.632 239.697Z"/><path d="M1057 265.5C1057 258.044 1063.04 252 1070.5 252L1214.5 252C1221.96 252 1228 258.044 1228 265.5L1228 319.5C1228 326.956 1221.96 333 1214.5 333L1070.5 333C1063.04 333 1057 326.956 1057 319.5Z" fill="url(#fill5)" fill-rule="evenodd"/><text fill="#FFFFFF" font-family="Bahnschrift Light,Bahnschrift Light_MSFontService,sans-serif" font-weight="300" font-size="19" transform="translate(1089.31 280)">Human in the</text><text fill="#FFFFFF" font-family="Bahnschrift Light,Bahnschrift Light_MSFontService,sans-serif" font-weight="300" font-size="19" transform="translate(1124.57 302)">loop</text><path d="M1057 151.5C1057 144.044 1063.04 138 1070.5 138L1214.5 138C1221.96 138 1228 144.044 1228 151.5L1228 205.5C1228 212.956 1221.96 219 1214.5 219L1070.5 219C1063.04 219 1057 212.956 1057 205.5Z" fill="url(#fill6)" fill-rule="evenodd"/><text fill="#FFFFFF" font-family="Bahnschrift Light,Bahnschrift Light_MSFontService,sans-serif" font-weight="300" font-size="19" transform="translate(1111.48 166)">Straight</text><text fill="#FFFFFF" font-family="Bahnschrift Light,Bahnschrift Light_MSFontService,sans-serif" font-weight="300" font-size="19" transform="translate(1108.23 188)">Through</text><text fill="#FFFFFF" font-family="Bahnschrift Light,Bahnschrift Light_MSFontService,sans-serif" font-weight="300" font-size="19" transform="translate(1095.65 210)">Processing</text><path d="M1016.03 237.091 1054.33 286.399 1053.27 287.217 1014.97 237.909ZM1056.14 283.302 1057.89 292.073 1049.82 288.209Z"/><path d="M0.516843-0.421092 39.8377 47.8409 38.804 48.6831-0.516843 0.421092ZM41.5797 44.7017 43.5318 53.4303 35.3776 49.7548Z" transform="matrix(1 0 0 -1 1014.5 236.93)"/><path d="M415.5 499.501C415.5 478.514 432.514 461.5 453.501 461.5L743.499 461.5C764.486 461.5 781.5 478.514 781.5 499.501L781.5 651.499C781.5 672.486 764.486 689.5 743.499 689.5L453.501 689.5C432.514 689.5 415.5 672.486 415.5 651.499Z" stroke="#000000" stroke-linejoin="round" stroke-miterlimit="10" stroke-dasharray="4 3" fill="none" fill-rule="evenodd"/><text font-family="Bahnschrift Light,Bahnschrift Light_MSFontService,sans-serif" font-weight="300" font-size="21" transform="translate(541.627 498)">Data Export</text><path d="M838 542C838 532.059 846.059 524 856 524L928 524C937.941 524 946 532.059 946 542L946 626C946 635.941 937.941 644 928 644L856 644C846.059 644 838 635.941 838 626Z" fill="url(#fill7)" fill-rule="evenodd"/><text fill="#FFFFFF" font-family="Bahnschrift Light,Bahnschrift Light_MSFontService,sans-serif" font-weight="300" font-size="21" transform="translate(857.905 555)">Search</text><text fill="#FFFFFF" font-family="Bahnschrift Light,Bahnschrift Light_MSFontService,sans-serif" font-weight="300" font-size="16" transform="translate(868.485 595)">Hybrid</text><text fill="#FFFFFF" font-family="Bahnschrift Light,Bahnschrift Light_MSFontService,sans-serif" font-weight="300" font-size="16" transform="translate(866.485 614)">Search</text><path d="M966 545C966 535.059 974.059 527 984 527L1056 527C1065.94 527 1074 535.059 1074 545L1074 626C1074 635.941 1065.94 644 1056 644L984 644C974.059 644 966 635.941 966 626Z" fill="url(#fill8)" fill-rule="evenodd"/><text fill="#FFFFFF" font-family="Bahnschrift Light,Bahnschrift Light_MSFontService,sans-serif" font-weight="300" font-size="21" transform="translate(982.072 558)">Reports</text><text fill="#FFFFFF" font-family="Bahnschrift Light,Bahnschrift Light_MSFontService,sans-serif" font-weight="300" font-size="15" transform="translate(1008.91 595)">Get</text><text fill="#FFFFFF" font-family="Bahnschrift Light,Bahnschrift Light_MSFontService,sans-serif" font-weight="300" font-size="15" transform="translate(990.738 612)">analytics</text><path d="M1094 545C1094 535.059 1102.06 527 1112 527L1184 527C1193.94 527 1202 535.059 1202 545L1202 626C1202 635.941 1193.94 644 1184 644L1112 644C1102.06 644 1094 635.941 1094 626Z" fill="url(#fill9)" fill-rule="evenodd"/><text fill="#FFFFFF" font-family="Bahnschrift Light,Bahnschrift Light_MSFontService,sans-serif" font-weight="300" font-size="21" transform="translate(1116.82 558)">Gen AI</text><text fill="#FFFFFF" font-family="Bahnschrift Light,Bahnschrift Light_MSFontService,sans-serif" font-weight="300" font-size="15" transform="translate(1109.57 595)">Talk to your</text><text fill="#FFFFFF" font-family="Bahnschrift Light,Bahnschrift Light_MSFontService,sans-serif" font-weight="300" font-size="15" transform="translate(1111.98 612)">documents</text><path d="M427 541.167C427 531.686 434.686 524 444.167 524L512.833 524C522.314 524 530 531.686 530 541.167L530 620.833C530 630.314 522.314 638 512.833 638L444.167 638C434.686 638 427 630.314 427 620.833Z" fill="url(#fill10)" fill-rule="evenodd"/><text fill="#FFFFFF" font-family="Bahnschrift Light,Bahnschrift Light_MSFontService,sans-serif" font-weight="300" font-size="15" transform="translate(458.426 565)">Direct</text><text fill="#FFFFFF" font-family="Bahnschrift Light,Bahnschrift Light_MSFontService,sans-serif" font-weight="300" font-size="15" transform="translate(445.76 583)">Download</text><text fill="#FFFFFF" font-family="Bahnschrift Light,Bahnschrift Light_MSFontService,sans-serif" font-weight="300" font-size="15" transform="translate(455.18 600)">(JSON)</text><path d="M542 542.167C542 532.686 549.686 525 559.167 525L627.833 525C637.314 525 645 532.686 645 542.167L645 621.833C645 631.314 637.314 639 627.833 639L559.167 639C549.686 639 542 631.314 542 621.833Z" fill="url(#fill11)" fill-rule="evenodd"/><text fill="#FFFFFF" font-family="Bahnschrift Light,Bahnschrift Light_MSFontService,sans-serif" font-weight="300" font-size="15" transform="translate(577.953 584)">APIs</text><path d="M660 542.167C660 532.686 667.686 525 677.167 525L745.833 525C755.314 525 763 532.686 763 542.167L763 621.833C763 631.314 755.314 639 745.833 639L677.167 639C667.686 639 660 631.314 660 621.833Z" fill="url(#fill12)" fill-rule="evenodd"/><text fill="#FFFFFF" font-family="Bahnschrift Light,Bahnschrift Light_MSFontService,sans-serif" font-weight="300" font-size="15" transform="translate(675.518 566)">Integration</text><text fill="#FFFFFF" font-family="Bahnschrift Light,Bahnschrift Light_MSFontService,sans-serif" font-weight="300" font-size="15" transform="translate(678.098 584)">into Client</text><text fill="#FFFFFF" font-family="Bahnschrift Light,Bahnschrift Light_MSFontService,sans-serif" font-weight="300" font-size="15" transform="translate(683.018 601)">Systems</text><text font-family="Aptos,Aptos_MSFontService,sans-serif" font-weight="400" font-size="19" transform="translate(1020.46 191)">No</text><text font-family="Aptos,Aptos_MSFontService,sans-serif" font-weight="400" font-size="19" transform="translate(1020.38 296)">Yes</text><text font-family="Arial,Arial_MSFontService,sans-serif" font-weight="400" font-size="19" transform="translate(1047.91 296)">​</text><path d="M464 211 548.48 211" stroke="#156082" stroke-width="2" stroke-miterlimit="8" fill="none" fill-rule="evenodd"/><path d="M2.69775e-06-0.666667 45.2219-0.666484 45.2219 0.66685-2.69775e-06 0.666667ZM43.8886-3.99982 51.8886 0.000209974 43.8886 4.00018Z" transform="matrix(1 0 0 -1 376.5 237.5)"/><path d="M678 211 762.48 211" stroke="#156082" stroke-width="2" stroke-miterlimit="8" fill="none" fill-rule="evenodd"/><path d="M890 213 974.48 213" stroke="#156082" stroke-width="2" stroke-miterlimit="8" fill="none" fill-rule="evenodd"/><path d="M251 211 335.48 211" stroke="#156082" stroke-width="2" stroke-miterlimit="8" fill="none" fill-rule="evenodd"/><path d="M66 212 150.48 212" stroke="#156082" stroke-width="2" stroke-miterlimit="8" fill="none" fill-rule="evenodd"/><path d="M177.004 235 201.16 235.089 201.153 237.089 176.996 237ZM199.838 232.084 207.823 236.114 199.809 240.084Z"/><path d="M598.5 432.5 1029.77 432.5" stroke="#000000" stroke-width="1.33333" stroke-miterlimit="8" fill="none" fill-rule="evenodd"/><path d="M802.167 379.5 802.167 425.953 800.833 425.953 800.833 379.5ZM805.5 424.62 801.5 432.62 797.5 424.62Z"/><path d="M600 432 600 454.472 598 454.472 598 432ZM603 453.139 599 461.139 595 453.139Z"/><path d="M0.999971-0.0076603 1.1825 23.8193-0.817444 23.8346-0.999971 0.0076603ZM4.1722 22.463 0.233596 30.4934-3.82757 22.5243Z" transform="matrix(-1 0 0 1 1028.23 432)"/><path d="M987 572 1057.29 572" stroke="#156082" stroke-width="2" stroke-miterlimit="8" fill="none" fill-rule="evenodd"/><path d="M857 571 927.288 571" stroke="#156082" stroke-width="2" stroke-miterlimit="8" fill="none" fill-rule="evenodd"/><path d="M1117 571 1187.29 571" stroke="#156082" stroke-width="2" stroke-miterlimit="8" fill="none" fill-rule="evenodd"/><path d="M81 131.5C81 120.73 89.9543 112 101 112 112.046 112 121 120.73 121 131.5 121 142.27 112.046 151 101 151 89.9543 151 81 142.27 81 131.5Z" stroke="#042433" stroke-width="2" stroke-miterlimit="8" fill="#156082" fill-rule="evenodd"/><path d="M485 131.5C485 120.73 493.954 112 505 112 516.046 112 525 120.73 525 131.5 525 142.27 516.046 151 505 151 493.954 151 485 142.27 485 131.5Z" stroke="#042433" stroke-width="2" stroke-miterlimit="8" fill="#156082" fill-rule="evenodd"/><g><g><g><g><path d="M41.3473 5.08356 39.1644 5.08356 39.1644 3.70862C39.1644 3.59351 39.0708 3.5 38.9556 3.5L20.8856 3.5C20.7703 3.5 20.6768 3.59351 20.6768 3.70862L20.6768 27.9902C20.6768 28.1053 20.7703 28.1989 20.8856 28.1989L23.0685 28.1989 23.0685 29.5738C23.0685 29.6889 23.162 29.7824 23.2773 29.7824L41.3473 29.7824C41.4626 29.7824 41.5561 29.6889 41.5561 29.5738L41.5561 5.29222C41.5561 5.17706 41.4626 5.08356 41.3473 5.08356ZM21.0944 3.91724 38.7468 3.91724 38.7468 27.7816 21.0944 27.7816ZM41.1385 29.3652 23.4861 29.3652 23.4861 28.1989 38.9559 28.1989C39.071 28.1989 39.1647 28.1053 39.1647 27.9902L39.1647 5.50083 41.1385 5.50083Z" fill="#FFFFFF" transform="matrix(1.0125 0 0 1 474 115)"/></g><path d="M23.4861 7.40358C23.4861 7.39853 23.4836 7.39446 23.4831 7.38941 23.4824 7.37541 23.4786 7.36223 23.4749 7.3487 23.4712 7.33488 23.4672 7.32187 23.4608 7.30921 23.4584 7.30485 23.4584 7.30009 23.4561 7.29573L22.7888 6.1915 24.0174 5.73408C24.1118 5.85796 24.2438 5.94996 24.3972 5.9952L24.3972 8.26795C23.9038 8.34776 23.4856 8.70545 23.3426 9.19221 23.324 9.25517 23.3364 9.3234 23.3759 9.37603 23.415 9.42852 23.4771 9.45959 23.5428 9.45959L25.6689 9.45959C25.7345 9.45959 25.7966 9.4287 25.8358 9.37603 25.8753 9.3234 25.8876 9.25517 25.8691 9.19221 25.7259 8.70545 25.3078 8.34776 24.8146 8.26795L24.8146 5.9952C24.9679 5.94996 25.1001 5.85796 25.1944 5.73408L26.423 6.1915 25.7558 7.29573C25.7534 7.30009 25.7531 7.30485 25.7511 7.30921 25.7447 7.32187 25.7408 7.33488 25.7369 7.3487 25.7332 7.3624 25.7296 7.37541 25.7288 7.38941 25.7283 7.39446 25.7257 7.39853 25.7257 7.40358 25.7257 7.95533 26.1772 8.40398 26.7317 8.40398 27.2863 8.40398 27.7377 7.95533 27.7377 7.40358 27.7377 7.39853 27.7352 7.39446 27.7348 7.38941 27.734 7.37541 27.7305 7.36223 27.7267 7.3487 27.7229 7.33488 27.719 7.32187 27.7124 7.30921 27.7102 7.30485 27.7102 7.30009 27.7076 7.29573L26.9105 5.97597C26.9058 5.96802 26.898 5.96331 26.8922 5.95622 26.8847 5.94641 26.8771 5.9373 26.8676 5.92904 26.8539 5.9169 26.8391 5.90796 26.8231 5.90001 26.8163 5.89664 26.8117 5.89089 26.8046 5.88821L25.3409 5.34316C25.3422 5.32579 25.3461 5.30959 25.3461 5.29204 25.3461 4.88591 25.0141 4.55544 24.606 4.55544 24.1979 4.55544 23.8659 4.88591 23.8659 5.29204 23.8659 5.30959 23.8697 5.32596 23.8711 5.34316L22.4072 5.88821C22.4003 5.89072 22.3957 5.89646 22.3893 5.89983 22.3729 5.90796 22.3579 5.9169 22.3439 5.92922 22.3348 5.9373 22.3272 5.94641 22.3196 5.95588 22.3137 5.96348 22.3059 5.96819 22.3012 5.97614L21.504 7.2959C21.5015 7.30027 21.5013 7.30515 21.4991 7.30956 21.4927 7.32204 21.489 7.33522 21.4849 7.34888 21.4812 7.36275 21.4777 7.37554 21.4768 7.38958 21.4763 7.39446 21.474 7.39853 21.474 7.40358 21.474 7.95533 21.9251 8.40398 22.4799 8.40398 23.0346 8.40398 23.4861 7.95533 23.4861 7.40358ZM26.7317 6.48775 27.1591 7.19514 26.3044 7.19514ZM26.7317 7.98674C26.4814 7.98674 26.2671 7.83093 26.1822 7.6122L27.2813 7.6122C27.1966 7.8311 26.982 7.98674 26.7317 7.98674ZM25.3372 9.04253 23.8745 9.04253C24.0402 8.81296 24.3115 8.66782 24.6058 8.66782 24.9002 8.66782 25.1714 8.8133 25.3372 9.04253ZM24.6058 4.97285C24.7837 4.97285 24.9284 5.11614 24.9284 5.29222 24.9284 5.46825 24.7837 5.61154 24.6058 5.61154 24.4279 5.61154 24.2833 5.46825 24.2833 5.29222 24.2833 5.11614 24.4279 4.97285 24.6058 4.97285ZM22.9073 7.19496 22.0527 7.19496 22.4801 6.4874ZM21.9305 7.6122 23.0294 7.6122C22.9446 7.83093 22.7303 7.98674 22.4799 7.98674 22.2298 7.98674 22.0153 7.8311 21.9305 7.6122Z" fill="#FFFFFF" transform="matrix(1.0125 0 0 1 474 115)"/><path d="M29.9206 6.29261 35.2353 6.29261C35.3506 6.29261 35.4441 6.1991 35.4441 6.08399 35.4441 5.96888 35.3506 5.87538 35.2353 5.87538L29.9206 5.87538C29.8054 5.87538 29.7118 5.96888 29.7118 6.08399 29.7118 6.1991 29.8054 6.29261 29.9206 6.29261Z" fill="#FFFFFF" transform="matrix(1.0125 0 0 1 474 115)"/><path d="M29.1235 8.14018 37.3615 8.14018C37.4768 8.14018 37.5703 8.04667 37.5703 7.93156 37.5703 7.81645 37.4768 7.7229 37.3615 7.7229L29.1235 7.7229C29.0082 7.7229 28.9147 7.81645 28.9147 7.93156 28.9147 8.04667 29.008 8.14018 29.1235 8.14018Z" fill="#FFFFFF" transform="matrix(1.0125 0 0 1 474 115)"/><path d="M26.2004 10.8902 23.0115 10.8902C22.8962 10.8902 22.8027 10.9836 22.8027 11.0987 22.8027 11.2138 22.8962 11.3073 23.0115 11.3073L26.2004 11.3073C26.3157 11.3073 26.4092 11.2138 26.4092 11.0987 26.4092 10.9836 26.3157 10.8902 26.2004 10.8902Z" fill="#FFFFFF" transform="matrix(1.0125 0 0 1 474 115)"/><path d="M24.1312 12.6824C24.1312 12.7976 24.2247 12.8909 24.34 12.8909L36.8297 12.8909C36.945 12.8909 37.0385 12.7976 37.0385 12.6824 37.0385 12.5672 36.945 12.4738 36.8297 12.4738L24.34 12.4738C24.2247 12.4738 24.1312 12.567 24.1312 12.6824Z" fill="#FFFFFF" transform="matrix(1.0125 0 0 1 474 115)"/><path d="M23.0115 15.0023 36.8299 15.0023C36.9451 15.0023 37.0386 14.9089 37.0386 14.7936 37.0386 14.6785 36.9451 14.5852 36.8299 14.5852L23.0115 14.5852C22.8962 14.5852 22.8027 14.6785 22.8027 14.7936 22.8027 14.9089 22.896 15.0023 23.0115 15.0023Z" fill="#FFFFFF" transform="matrix(1.0125 0 0 1 474 115)"/><path d="M23.0115 17.3778 36.8299 17.3778C36.9451 17.3778 37.0386 17.2843 37.0386 17.1692 37.0386 17.0541 36.9451 16.9606 36.8299 16.9606L23.0115 16.9606C22.8962 16.9606 22.8027 17.0541 22.8027 17.1692 22.8027 17.2843 22.896 17.3778 23.0115 17.3778Z" fill="#FFFFFF" transform="matrix(1.0125 0 0 1 474 115)"/><path d="M28.5919 19.4892 36.8299 19.4892C36.9451 19.4892 37.0386 19.3957 37.0386 19.2806 37.0386 19.1654 36.9451 19.0719 36.8299 19.0719L28.5919 19.0719C28.4766 19.0719 28.3831 19.1654 28.3831 19.2806 28.3831 19.3957 28.4766 19.4892 28.5919 19.4892Z" fill="#FFFFFF" transform="matrix(1.0125 0 0 1 474 115)"/><path d="M28.8007 23.5035C28.8007 21.6419 27.2766 20.1275 25.403 20.1275 23.5295 20.1275 22.0055 21.6419 22.0055 23.5035 22.0055 25.3649 23.5296 26.8792 25.403 26.8792 27.2766 26.8792 28.8007 25.3649 28.8007 23.5035ZM22.4231 23.5035C22.4231 21.872 23.76 20.5448 25.403 20.5448 27.0462 20.5448 28.3831 21.872 28.3831 23.5035 28.3831 25.1348 27.0462 26.462 25.403 26.462 23.76 26.462 22.4231 25.1348 22.4231 23.5035Z" fill="#FFFFFF" transform="matrix(1.0125 0 0 1 474 115)"/><path d="M27.7377 23.5035C27.7377 22.2241 26.6904 21.1833 25.403 21.1833 24.1155 21.1833 23.0683 22.2241 23.0683 23.5035 23.0683 24.7827 24.1155 25.8236 25.403 25.8236 26.6904 25.8236 27.7377 24.7827 27.7377 23.5035ZM23.4861 23.5035C23.4861 22.4543 24.3461 21.6004 25.4032 21.6004 26.4603 21.6004 27.3203 22.4539 27.3203 23.5035 27.3203 24.5528 26.4603 25.4064 25.4032 25.4064 24.3461 25.4064 23.4861 24.5527 23.4861 23.5035Z" fill="#FFFFFF" transform="matrix(1.0125 0 0 1 474 115)"/><path d="M26.3344 22.5517C26.2459 22.4776 26.1143 22.4892 26.0402 22.5775L24.8902 23.9484 24.5135 23.3872C24.4492 23.2915 24.3197 23.2657 24.2237 23.3303 24.1282 23.3946 24.1023 23.5241 24.1666 23.6198L24.6982 24.4116C24.7346 24.4661 24.7947 24.5003 24.8604 24.5035 24.8641 24.5039 24.8678 24.5039 24.8713 24.5039 24.933 24.5039 24.9917 24.4767 25.0315 24.4293L26.3604 22.8457C26.4345 22.7573 26.4227 22.6256 26.3344 22.5517Z" fill="#FFFFFF" transform="matrix(1.0125 0 0 1 474 115)"/><path d="M37.2859 23.5327C37.0437 23.6263 36.7934 23.7097 36.5417 23.7805 36.2727 23.8559 35.9981 23.9184 35.7216 23.9663 35.7459 23.9053 35.7663 23.8431 35.7828 23.7791 35.836 23.5728 35.9091 23.2905 35.7423 23.0867 35.5725 22.8791 35.239 22.857 34.7507 23.0209 34.3869 23.1431 34.0821 23.348 33.8379 23.5619 33.8477 23.3774 33.8161 23.1993 33.6959 23.0744 33.4335 22.8006 32.944 22.9439 32.1878 23.2827 31.3981 23.6363 30.6174 24.0696 29.8677 24.5706 29.7718 24.6345 29.7459 24.7641 29.8101 24.8599 29.8502 24.9201 29.9164 24.9525 29.9839 24.9525 30.0238 24.9525 30.0641 24.941 30.0997 24.9172 30.8304 24.4293 31.5905 24.0073 32.3588 23.6635 33.2179 23.2785 33.3685 23.3367 33.3948 23.3632 33.3984 23.3669 33.48 23.4589 33.3448 23.9231 33.2919 24.1048 33.1997 24.2416 33.1501 24.315 33.0292 24.4944 33.0906 24.5989 33.1634 24.6553 33.2077 24.6892 33.2653 24.7044 33.3212 24.6968 33.4167 24.6835 33.4578 24.6279 33.5396 24.5175 33.715 24.2811 34.181 23.6529 34.8839 23.4164 35.2539 23.2922 35.4019 23.334 35.4186 23.3509 35.4503 23.3955 35.3961 23.6058 35.3781 23.6751 35.3381 23.8304 35.2652 23.9757 35.162 24.1062 35.1095 24.1726 35.1025 24.2639 35.1438 24.3376 35.1852 24.4112 35.2669 24.4526 35.3513 24.4424 35.7908 24.3893 36.2291 24.3017 36.6546 24.182 36.9193 24.1077 37.1823 24.02 37.4368 23.9214 37.5443 23.8797 37.5978 23.759 37.5561 23.6515 37.5143 23.5445 37.3934 23.4911 37.2859 23.5327Z" fill="#FFFFFF" transform="matrix(1.0125 0 0 1 474 115)"/><path d="M36.5434 25.1434 31.2286 25.6712C31.114 25.6827 31.0299 25.7848 31.0414 25.8994 31.0522 26.0071 31.143 26.0874 31.249 26.0874 31.256 26.0874 31.2629 26.0873 31.27 26.0865L36.5848 25.5585C36.6994 25.547 36.7833 25.445 36.7718 25.3303 36.7603 25.2155 36.6587 25.1306 36.5434 25.1434Z" fill="#FFFFFF" transform="matrix(1.0125 0 0 1 474 115)"/></g></g></g><g><g><g><g><path d="M113.157 138.7 111.739 138.902C111.568 138.928 111.431 139.054 111.393 139.223 111.28 139.734 111.079 140.218 110.795 140.667 110.701 140.811 110.709 140.998 110.812 141.137L111.673 142.285 111.011 142.947 109.863 142.086C109.726 141.983 109.539 141.975 109.394 142.069 108.945 142.353 108.461 142.555 107.951 142.668 107.781 142.705 107.656 142.842 107.63 143.012L107.428 144.433 106.492 144.433 106.29 143.012C106.264 142.842 106.138 142.705 105.969 142.668 105.459 142.555 104.975 142.353 104.526 142.069 104.382 141.975 104.195 141.983 104.056 142.086L102.909 142.947 102.247 142.285 103.107 141.137C103.211 140.998 103.219 140.811 103.125 140.667 102.841 140.218 102.639 139.734 102.526 139.223 102.489 139.054 102.352 138.928 102.181 138.902L100.762 138.7 100.762 137.763 102.181 137.562C102.352 137.536 102.489 137.41 102.526 137.24 102.639 136.73 102.841 136.245 103.125 135.796 103.219 135.653 103.211 135.465 103.107 135.326L102.247 134.178 102.909 133.516 104.056 134.377C104.195 134.48 104.382 134.488 104.526 134.395 104.975 134.11 105.459 133.909 105.969 133.795 106.138 133.758 106.264 133.621 106.29 133.45L106.492 132.031 107.428 132.031 107.63 133.45C107.656 133.621 107.781 133.758 107.951 133.795 108.461 133.909 108.945 134.11 109.394 134.395 109.537 134.488 109.725 134.48 109.863 134.377L111.011 133.516 111.673 134.178 110.812 135.326C110.709 135.465 110.701 135.653 110.795 135.796 111.079 136.245 111.28 136.73 111.393 137.24 111.431 137.41 111.568 137.536 111.739 137.562L113.157 137.763ZM90.8463 140.712 90.8463 122.522C90.8463 121.837 91.4015 121.282 92.0858 121.282L101.589 121.282 101.589 125.003C101.589 125.17 101.689 125.321 101.844 125.384 101.999 125.45 102.176 125.413 102.294 125.295L103.241 124.347 104.189 125.295C104.268 125.374 104.373 125.416 104.481 125.416 104.534 125.416 104.588 125.406 104.639 125.384 104.794 125.321 104.894 125.17 104.894 125.003L104.894 121.282 105.307 121.282C105.992 121.282 106.547 121.837 106.547 122.522L106.547 131.204 106.133 131.204C105.929 131.204 105.754 131.355 105.725 131.559L105.511 133.059C105.099 133.174 104.705 133.338 104.331 133.548L103.117 132.639C102.953 132.515 102.722 132.531 102.578 132.678L101.41 133.847C101.264 133.993 101.247 134.222 101.371 134.387L102.28 135.601C102.07 135.976 101.905 136.37 101.79 136.782L100.291 136.996C100.088 137.025 99.936 137.2 99.936 137.405L99.936 139.058C99.936 139.264 100.088 139.438 100.291 139.467L101.79 139.682C101.905 140.094 102.07 140.488 102.28 140.862L101.465 141.952 92.0858 141.952C91.4015 141.952 90.8463 141.397 90.8463 140.712ZM104.068 121.282 104.068 124.004 103.533 123.47C103.453 123.389 103.348 123.349 103.241 123.349 103.135 123.349 103.03 123.389 102.949 123.47L102.415 124.004 102.415 121.282ZM113.629 136.996 112.129 136.782C112.015 136.37 111.85 135.976 111.64 135.601L112.549 134.387C112.673 134.222 112.656 133.993 112.51 133.847L111.342 132.678C111.197 132.533 110.966 132.515 110.803 132.639L109.589 133.548C109.215 133.338 108.821 133.174 108.409 133.059L108.195 131.559C108.166 131.355 107.991 131.204 107.786 131.204L107.373 131.204 107.373 122.522C107.373 121.382 106.447 120.455 105.307 120.455L92.0858 120.455C90.9464 120.455 90.02 121.382 90.02 122.522L90.02 140.712C90.02 141.852 90.9464 142.779 92.0858 142.779L101.573 142.779 102.578 143.785C102.722 143.932 102.953 143.948 103.117 143.824L104.331 142.913C104.705 143.125 105.099 143.289 105.511 143.404L105.725 144.904C105.754 145.108 105.929 145.26 106.133 145.26L107.786 145.26C107.991 145.26 108.166 145.108 108.195 144.904L108.409 143.404C108.821 143.289 109.215 143.125 109.589 142.913L110.803 143.824C110.966 143.947 111.197 143.932 111.342 143.785L112.51 142.616C112.656 142.471 112.673 142.242 112.549 142.077L111.64 140.862C111.85 140.488 112.015 140.094 112.129 139.682L113.629 139.467C113.832 139.438 113.984 139.264 113.984 139.058L113.984 137.405C113.984 137.2 113.832 137.025 113.629 136.996" fill="#FFFFFF"/></g><path d="M106.96 140.712C105.593 140.712 104.481 139.599 104.481 138.232 104.481 136.864 105.593 135.751 106.96 135.751 108.327 135.751 109.439 136.864 109.439 138.232 109.439 139.599 108.327 140.712 106.96 140.712ZM106.96 134.924C105.138 134.924 103.654 136.408 103.654 138.232 103.654 140.055 105.138 141.539 106.96 141.539 108.782 141.539 110.265 140.055 110.265 138.232 110.265 136.408 108.782 134.924 106.96 134.924" fill="#FFFFFF"/><path d="M94.1517 122.935 92.4989 122.935 92.4989 123.762 94.1517 123.762 94.1517 122.935" fill="#FFFFFF"/><path d="M99.1096 122.935 94.9779 122.935 94.9779 123.762 99.1096 123.762 99.1096 122.935" fill="#FFFFFF"/><path d="M99.1096 124.589 92.4989 124.589 92.4989 125.416 99.1096 125.416 99.1096 124.589" fill="#FFFFFF"/><path d="M104.068 127.896 92.4989 127.896 92.4989 128.723 104.068 128.723 104.068 127.896" fill="#FFFFFF"/><path d="M101.589 130.377 92.4989 130.377 92.4989 131.204 101.589 131.204 101.589 130.377" fill="#FFFFFF"/><path d="M102.415 131.204 104.068 131.204 104.068 130.377 102.415 130.377 102.415 131.204" fill="#FFFFFF"/><path d="M100.762 132.857 92.4989 132.857 92.4989 133.684 100.762 133.684 100.762 132.857" fill="#FFFFFF"/><path d="M92.4989 136.991 95.8043 136.991 95.8043 136.165 92.4989 136.165 92.4989 136.991" fill="#FFFFFF"/><path d="M92.4989 138.645 95.8043 138.645 95.8043 137.818 92.4989 137.818 92.4989 138.645" fill="#FFFFFF"/></g></g></g><path d="M273 131.5C273 120.73 281.954 112 293 112 304.046 112 313 120.73 313 131.5 313 142.27 304.046 151 293 151 281.954 151 273 142.27 273 131.5Z" stroke="#042433" stroke-width="2" stroke-miterlimit="8" fill="#156082" fill-rule="evenodd"/><g><g><g><g><path d="M40.6866 26.5087C40.6866 26.5989 40.6134 26.6718 40.5232 26.6718L36.1226 26.6718C36.0324 26.6718 35.9592 26.5989 35.9592 26.5087 35.9592 26.4185 36.0324 26.3456 36.1226 26.3456L40.5232 26.3456C40.6134 26.3456 40.6866 26.4185 40.6866 26.5087ZM40.6866 25.3725C40.6866 25.4627 40.6134 25.5356 40.5232 25.5356L36.1226 25.5356C36.0324 25.5356 35.9592 25.4627 35.9592 25.3725 35.9592 25.2825 36.0324 25.2096 36.1226 25.2096L40.5232 25.2096C40.6134 25.2096 40.6866 25.2825 40.6866 25.3725ZM40.6866 24.2355C40.6866 24.3257 40.6134 24.3986 40.5232 24.3986L36.1226 24.3986C36.0324 24.3986 35.9592 24.3257 35.9592 24.2355 35.9592 24.1453 36.0324 24.0724 36.1226 24.0724L40.5232 24.0724C40.6134 24.0724 40.6866 24.1453 40.6866 24.2355ZM32.5498 26.5087C32.5498 26.5989 32.4761 26.6718 32.3867 26.6718L27.9851 26.6718C27.8949 26.6718 27.822 26.5989 27.822 26.5087 27.822 26.4185 27.8949 26.3456 27.9851 26.3456L32.3867 26.3456C32.4761 26.3456 32.5498 26.4185 32.5498 26.5087ZM32.5498 25.3725C32.5498 25.4627 32.4761 25.5356 32.3867 25.5356L27.9851 25.5356C27.8949 25.5356 27.822 25.4627 27.822 25.3725 27.822 25.2825 27.8949 25.2096 27.9851 25.2096L32.3867 25.2096C32.4761 25.2096 32.5498 25.2825 32.5498 25.3725ZM27.9851 24.0724 32.3867 24.0724C32.4761 24.0724 32.5498 24.1453 32.5498 24.2355 32.5498 24.3257 32.4761 24.3986 32.3867 24.3986L27.9851 24.3986C27.8949 24.3986 27.822 24.3257 27.822 24.2355 27.822 24.1453 27.8949 24.0724 27.9851 24.0724ZM24.4126 26.5087C24.4126 26.5989 24.3394 26.6718 24.2491 26.6718L19.8476 26.6718C19.7574 26.6718 19.6845 26.5989 19.6845 26.5087 19.6845 26.4185 19.7574 26.3456 19.8476 26.3456L24.2491 26.3456C24.3394 26.3456 24.4126 26.4185 24.4126 26.5087ZM24.4126 25.3725C24.4126 25.4627 24.3394 25.5356 24.2491 25.5356L19.8476 25.5356C19.7574 25.5356 19.6845 25.4627 19.6845 25.3725 19.6845 25.2825 19.7574 25.2096 19.8476 25.2096L24.2491 25.2096C24.3394 25.2096 24.4126 25.2825 24.4126 25.3725ZM19.8476 24.0724 24.2491 24.0724C24.3394 24.0724 24.4126 24.1453 24.4126 24.2355 24.4126 24.3257 24.3394 24.3986 24.2491 24.3986L19.8476 24.3986C19.7574 24.3986 19.6845 24.3257 19.6845 24.2355 19.6845 24.1453 19.7574 24.0724 19.8476 24.0724ZM16.275 26.5087C16.275 26.5989 16.2021 26.6718 16.1119 26.6718L11.7103 26.6718C11.6209 26.6718 11.5469 26.5989 11.5469 26.5087 11.5469 26.4185 11.6209 26.3456 11.7103 26.3456L16.1119 26.3456C16.2021 26.3456 16.275 26.4185 16.275 26.5087ZM16.275 25.3725C16.275 25.4627 16.2021 25.5356 16.1119 25.5356L11.7103 25.5356C11.6209 25.5356 11.5469 25.4627 11.5469 25.3725 11.5469 25.2825 11.6209 25.2096 11.7103 25.2096L16.1119 25.2096C16.2021 25.2096 16.275 25.2825 16.275 25.3725ZM11.7103 24.0724 16.1119 24.0724C16.2021 24.0724 16.275 24.1453 16.275 24.2355 16.275 24.3257 16.2021 24.3986 16.1119 24.3986L11.7103 24.3986C11.6209 24.3986 11.5469 24.3257 11.5469 24.2355 11.5469 24.1453 11.6209 24.0724 11.7103 24.0724ZM41.6236 26.912C41.6236 27.5617 41.0945 28.0902 40.4433 28.0902L36.2 28.0902C35.5495 28.0902 35.0204 27.5617 35.0204 26.912L35.0204 23.8433C35.0204 23.1939 35.5495 22.6651 36.2 22.6651L40.4433 22.6651C41.0945 22.6651 41.6236 23.1939 41.6236 23.8433ZM33.4871 23.8433 33.4871 26.912C33.4871 27.5617 32.958 28.0902 32.3068 28.0902L28.0632 28.0902C27.413 28.0902 26.8829 27.5617 26.8829 26.912L26.8829 23.8433C26.8829 23.1939 27.413 22.6651 28.0632 22.6651L32.3068 22.6651C32.958 22.6651 33.4871 23.1939 33.4871 23.8433ZM25.3506 23.8433 25.3506 26.912C25.3506 27.5617 24.8205 28.0902 24.1703 28.0902L19.9267 28.0902C19.2755 28.0902 18.7464 27.5617 18.7464 26.912L18.7464 23.8433C18.7464 23.1939 19.2755 22.6651 19.9267 22.6651L24.1703 22.6651C24.8205 22.6651 25.3506 23.1939 25.3506 23.8433ZM17.2131 23.8433 17.2131 26.912C17.2131 27.5617 16.684 28.0902 16.0336 28.0902L11.7902 28.0902C11.139 28.0902 10.6099 27.5617 10.6099 26.912L10.6099 23.8433C10.6099 23.1939 11.139 22.6651 11.7902 22.6651L16.0336 22.6651C16.684 22.6651 17.2131 23.1939 17.2131 23.8433ZM21.5451 11.3524 22.8439 11.3524C22.9341 11.3524 23.007 11.2795 23.007 11.1892L23.007 9.89174 30.6859 9.89174 30.6859 17.4425 21.5451 17.4425ZM22.6816 10.1219 22.6816 11.0264 21.7762 11.0264ZM40.4433 22.3383 38.502 22.3383 38.502 20.5825C38.502 20.4924 38.4291 20.4195 38.3389 20.4195L26.2799 20.4195 26.2799 17.7687 30.7658 17.7687C30.9023 17.7687 31.0124 17.6563 31.0124 17.5171L31.0124 9.81205C31.0124 9.67549 30.9023 9.56571 30.7658 9.56571L22.8439 9.56571C22.8406 9.56571 22.838 9.56749 22.8344 9.56749 22.8199 9.56828 22.8053 9.57086 22.7916 9.576 22.7865 9.57785 22.7813 9.57936 22.7761 9.58194 22.7589 9.58966 22.7426 9.59922 22.7288 9.61288L21.2667 11.0743C21.2531 11.088 21.2428 11.1044 21.2351 11.1207 21.2325 11.1259 21.2314 11.131 21.2299 11.1362 21.2248 11.1506 21.2212 11.1645 21.2204 11.18 21.2204 11.1833 21.2186 11.1859 21.2186 11.1892L21.2186 17.5171C21.2186 17.6538 21.3338 17.7687 21.4703 17.7687L25.9536 17.7687 25.9536 20.4195 13.9153 20.4195C13.8251 20.4195 13.7521 20.4924 13.7521 20.5825L13.7521 22.3383 11.7902 22.3383C10.9594 22.3383 10.2834 23.0135 10.2834 23.8433L10.2834 26.912C10.2834 27.7418 10.9594 28.4165 11.7902 28.4165L16.0336 28.4165C16.8644 28.4165 17.5396 27.7418 17.5396 26.912L17.5396 23.8433C17.5396 23.0135 16.8644 22.3383 16.0336 22.3383L14.0786 22.3383 14.0786 20.7454 21.8852 20.7454 21.8852 22.3383 19.9267 22.3383C19.0961 22.3383 18.4199 23.0135 18.4199 23.8433L18.4199 26.912C18.4199 27.7418 19.0961 28.4165 19.9267 28.4165L24.1703 28.4165C25.0009 28.4165 25.6769 27.7418 25.6769 26.912L25.6769 23.8433C25.6769 23.0135 25.0009 22.3383 24.1703 22.3383L22.2118 22.3383 22.2118 20.7454 30.0217 20.7454 30.0217 22.3383 28.0632 22.3383C27.2326 22.3383 26.5574 23.0135 26.5574 23.8433L26.5574 26.912C26.5574 27.7418 27.2326 28.4165 28.0632 28.4165L32.3068 28.4165C33.1374 28.4165 33.8136 27.7418 33.8136 26.912L33.8136 23.8433C33.8136 23.0135 33.1374 22.3383 32.3068 22.3383L30.3483 22.3383 30.3483 20.7454 38.1755 20.7454 38.1755 22.3383 36.2 22.3383C35.3691 22.3383 34.6939 23.0135 34.6939 23.8433L34.6939 26.912C34.6939 27.7418 35.3691 28.4165 36.2 28.4165L40.4433 28.4165C41.2749 28.4165 41.9501 27.7418 41.9501 26.912L41.9501 23.8433C41.9501 23.0135 41.2749 22.3383 40.4433 22.3383ZM24.3077 15.4944C24.3077 15.5839 24.2348 15.6576 24.1445 15.6576L21.9505 15.6576C21.8602 15.6576 21.7873 15.5839 21.7873 15.4944 21.7873 15.4045 21.8602 15.3306 21.9505 15.3306L24.1445 15.3306C24.2348 15.3306 24.3077 15.4045 24.3077 15.4944ZM24.3077 16.4704C24.3077 16.5603 24.2348 16.6332 24.1445 16.6332L21.9505 16.6332C21.8602 16.6332 21.7873 16.5603 21.7873 16.4704 21.7873 16.3802 21.8602 16.3073 21.9505 16.3073L24.1445 16.3073C24.2348 16.3073 24.3077 16.3802 24.3077 16.4704ZM30.3243 10.8599C30.3243 10.9499 30.2503 11.0228 30.1609 11.0228L27.9663 11.0228C27.8761 11.0228 27.8029 10.9499 27.8029 10.8599 27.8029 10.7697 27.8761 10.6968 27.9663 10.6968L30.1609 10.6968C30.2503 10.6968 30.3243 10.7697 30.3243 10.8599ZM30.3243 11.8363C30.3243 11.9265 30.2503 11.9995 30.1609 11.9995L27.9663 11.9995C27.8761 11.9995 27.8029 11.9265 27.8029 11.8363 27.8029 11.7462 27.8761 11.6732 27.9663 11.6732L30.1609 11.6732C30.2503 11.6732 30.3243 11.7462 30.3243 11.8363ZM28.6131 15.5906C28.6655 15.6354 28.6912 15.6885 28.6938 15.7478 28.6964 15.8034 28.6765 15.8594 28.6371 15.9021L28.4858 16.0627C28.4858 16.0634 28.4858 16.0634 28.4858 16.0634 28.4456 16.1055 28.3915 16.1297 28.333 16.1305 28.3312 16.1305 28.3305 16.1305 28.3286 16.1305 28.2737 16.1305 28.2204 16.1091 28.1802 16.0686L27.7746 15.6086C27.7189 15.546 27.7205 15.4509 27.7782 15.3898L27.9163 15.2414C27.974 15.1805 28.0683 15.1728 28.1346 15.2234ZM28.8312 15.982 28.5786 16.2513C28.5392 16.2943 28.4843 16.3184 28.4232 16.3194 28.357 16.3253 28.2969 16.2951 28.2506 16.2498L25.9758 13.9884C25.982 13.9843 25.9871 13.9773 25.9931 13.9732 26.0678 13.9139 26.14 13.8513 26.2052 13.781 26.2706 13.7114 26.3281 13.6359 26.3822 13.5578 26.3866 13.5508 26.3917 13.5457 26.3958 13.5397L28.8072 15.655C28.8561 15.6988 28.8853 15.7589 28.8879 15.8233 28.8904 15.8833 28.8708 15.94 28.8312 15.982ZM23.825 13.6307C23.5294 13.3553 23.3593 12.9803 23.3464 12.5752 23.3328 12.1711 23.4771 11.7858 23.7536 11.4897 24.0301 11.1954 24.4048 11.0253 24.8094 11.0125 24.8264 11.0117 24.8437 11.0117 24.8599 11.0117 25.2457 11.0117 25.6124 11.1558 25.8952 11.4201 26.3855 11.8784 26.5154 12.6157 26.2095 13.2127 26.1451 13.339 26.0634 13.4558 25.9673 13.5586 25.8694 13.6625 25.7585 13.7526 25.6367 13.8255 25.0601 14.1689 24.3154 14.0897 23.825 13.6307ZM29.0229 15.4105 26.5541 13.2445C26.853 12.5409 26.6829 11.7093 26.1185 11.1815 25.7585 10.846 25.2887 10.671 24.7991 10.6864 24.3069 10.7019 23.8515 10.9086 23.5157 11.2673 23.1789 11.6261 23.0037 12.0946 23.02 12.5862 23.0364 13.0779 23.2433 13.5339 23.6024 13.8693 23.9513 14.1954 24.4048 14.3637 24.8625 14.3637 25.1452 14.3637 25.4279 14.2949 25.689 14.1636L28.0204 16.4814C28.1269 16.5861 28.2711 16.6454 28.4189 16.6454 28.4224 16.6454 28.4266 16.6454 28.4301 16.6454 28.5786 16.6428 28.717 16.5817 28.8175 16.4737L29.0693 16.2052C29.1698 16.0977 29.2213 15.9562 29.2143 15.8078 29.2066 15.6568 29.137 15.5117 29.0229 15.4105ZM24.1884 13.2429C23.9966 13.0636 23.8858 12.8205 23.8773 12.5579 23.8688 12.2956 23.9624 12.0448 24.1419 11.8536 24.512 11.4578 25.1357 11.4382 25.5318 11.808 25.8495 12.1059 25.9338 12.5837 25.7361 12.9715 25.6941 13.0532 25.6408 13.1287 25.5782 13.1958 25.5145 13.2635 25.4423 13.3218 25.3643 13.3689 24.9906 13.5921 24.5069 13.5397 24.1884 13.2429ZM25.817 13.4179C25.9003 13.3287 25.9706 13.2289 26.0266 13.1202 26.2902 12.6035 26.1786 11.966 25.7542 11.5704 25.2276 11.0769 24.3971 11.1044 23.9031 11.6304 23.6642 11.8861 23.5397 12.219 23.5508 12.5682 23.5629 12.9184 23.7098 13.2419 23.9657 13.4805 24.2131 13.7122 24.5363 13.8323 24.8618 13.8323 25.0929 13.8323 25.3248 13.7722 25.5318 13.6488 25.6367 13.5851 25.7328 13.5081 25.817 13.4179" fill="#FFFFFF" transform="matrix(1.00658 0 0 1 267 110)"/></g></g></g></g><path d="M699 131.5C699 120.73 707.954 112 719 112 730.046 112 739 120.73 739 131.5 739 142.27 730.046 151 719 151 707.954 151 699 142.27 699 131.5Z" stroke="#042433" stroke-width="2" stroke-miterlimit="8" fill="#156082" fill-rule="evenodd"/><g><g><g><g><path d="M31.3756 3.21415 25.6813 3.21415C25.6813 3.21415 25.68 3.21371 25.6793 3.21371L17.3082 3.21371C17.3082 3.21371 17.3069 3.21415 17.3063 3.21415L11.6121 3.21415C11.4532 3.21415 11.3243 3.34275 11.3243 3.50154L11.3243 28.7032C11.3243 28.862 11.4532 28.9906 11.6121 28.9906L31.3756 28.9906C31.5348 28.9906 31.6634 28.862 31.6634 28.7032L31.6634 3.50154C31.6634 3.34275 31.5348 3.21415 31.3756 3.21415ZM17.268 26.6732 13.6451 23.0554 17.268 23.0554ZM17.5558 22.4805 13.2381 22.4805 13.2381 5.12502 17.0245 5.12502C17.0464 5.85114 17.6411 6.43572 18.3733 6.43572L24.6142 6.43572C25.3467 6.43572 25.9413 5.85114 25.9632 5.12502L29.7497 5.12502 29.7497 27.0795 17.8438 27.0795 17.8438 22.7679C17.8438 22.6093 17.7148 22.4805 17.5558 22.4805ZM25.3915 5.08477C25.3915 5.51278 25.0429 5.86077 24.6142 5.86077L18.3733 5.86077C17.9449 5.86077 17.5962 5.51278 17.5962 5.08477L17.5962 3.78892 25.3915 3.78892ZM31.0878 28.4156 11.9 28.4156 11.9 3.78892 17.0204 3.78892 17.0204 4.55003 12.95 4.55003C12.7912 4.55003 12.6622 4.67885 12.6622 4.83763L12.6622 22.7679C12.6622 22.8442 12.6923 22.9174 12.7466 22.971L17.3524 27.5701C17.4064 27.6243 17.4797 27.6543 17.5558 27.6543L30.0375 27.6543C30.1967 27.6543 30.3254 27.5257 30.3254 27.3669L30.3254 4.83763C30.3254 4.67885 30.1967 4.55003 30.0375 4.55003L25.9671 4.55003 25.9671 3.78892 31.0878 3.78892 31.0878 28.4158Z" fill="#FFFFFF" transform="matrix(1 0 0 1.02326 698 115)"/></g><path d="M21.2903 15.6928C21.3445 15.7468 21.4175 15.777 21.4939 15.777 21.5702 15.777 21.6434 15.7468 21.6973 15.6928L23.9819 13.4119C24.6468 12.7482 25.0127 11.8661 25.0127 10.9274 25.0127 9.98888 24.6468 9.10682 23.9819 8.44306 22.6099 7.07328 20.3778 7.07283 19.0058 8.44306 17.6339 9.81307 17.6339 12.0421 19.0058 13.4119ZM19.4129 8.84966C19.9865 8.27683 20.7402 7.99055 21.4939 7.99055 22.2476 7.99055 23.001 8.27705 23.5749 8.84966 24.1308 9.40474 24.437 10.1424 24.437 10.9274 24.437 11.7125 24.1308 12.4502 23.5749 13.0053L21.4939 15.0833 19.4129 13.0053C18.2655 11.8597 18.2655 9.99526 19.4129 8.84966Z" fill="#FFFFFF" transform="matrix(1 0 0 1.02326 698 115)"/><path d="M21.4939 13.0543C22.0396 13.0543 22.5855 12.8468 23.0006 12.4319 23.403 12.0301 23.6245 11.4958 23.6245 10.9274 23.6245 10.3592 23.403 9.82488 23.0006 9.4231 22.1704 8.59373 20.8183 8.5935 19.9874 9.4231 19.1567 10.2526 19.1567 11.6023 19.9874 12.4319 20.4027 12.8468 20.9484 13.0543 21.4939 13.0543ZM20.3942 9.82948C20.6973 9.52674 21.0958 9.3754 21.4937 9.3754 21.8913 9.3754 22.29 9.52674 22.5931 9.82948 23.1994 10.4348 23.1994 11.4199 22.5931 12.0255 21.9873 12.6302 21.0005 12.6305 20.3942 12.0255 19.788 11.4201 19.788 10.4351 20.3942 9.82948Z" fill="#FFFFFF" transform="matrix(1 0 0 1.02326 698 115)"/><path d="M15.7622 17.8143 27.2254 17.8143C27.3846 17.8143 27.5134 17.6855 27.5134 17.5267 27.5134 17.3681 27.3846 17.2393 27.2254 17.2393L15.7622 17.2393C15.6034 17.2393 15.4743 17.3681 15.4743 17.5267 15.4743 17.6855 15.6034 17.8143 15.7622 17.8143Z" fill="#FFFFFF" transform="matrix(1 0 0 1.02326 698 115)"/><path d="M27.5134 19.1287C27.5134 18.9699 27.3846 18.8412 27.2254 18.8412L15.7622 18.8412C15.6034 18.8412 15.4743 18.9699 15.4743 19.1287 15.4743 19.2873 15.6034 19.4161 15.7622 19.4161L27.2254 19.4161C27.3846 19.4161 27.5134 19.2873 27.5134 19.1287Z" fill="#FFFFFF" transform="matrix(1 0 0 1.02326 698 115)"/><path d="M27.2254 20.4436 21.6737 20.4436C21.5149 20.4436 21.3858 20.5725 21.3858 20.7313 21.3858 20.8898 21.5149 21.0186 21.6737 21.0186L27.2254 21.0186C27.3846 21.0186 27.5134 20.8898 27.5134 20.7313 27.5134 20.5725 27.3846 20.4436 27.2254 20.4436Z" fill="#FFFFFF" transform="matrix(1 0 0 1.02326 698 115)"/><path d="M20.3317 20.4436 18.3429 20.4436C18.1839 20.4436 18.0551 20.5725 18.0551 20.7313 18.0551 20.8898 18.1839 21.0186 18.3429 21.0186L20.3317 21.0186C20.4907 21.0186 20.6197 20.8898 20.6197 20.7313 20.6197 20.5725 20.4907 20.4436 20.3317 20.4436Z" fill="#FFFFFF" transform="matrix(1 0 0 1.02326 698 115)"/></g></g></g><text font-family="Bahnschrift Light,Bahnschrift Light_MSFontService,sans-serif" font-weight="300" font-size="32" transform="translate(603.941 91)">IntelyDoc</text><text font-family="Bahnschrift Light,Bahnschrift Light_MSFontService,sans-serif" font-weight="300" font-size="32" transform="translate(746.275 91)">Platform Workflow</text><path d="M912 130.5C912 119.73 920.954 111 932 111 943.046 111 952 119.73 952 130.5 952 141.27 943.046 150 932 150 920.954 150 912 141.27 912 130.5Z" stroke="#042433" stroke-width="2" stroke-miterlimit="8" fill="#156082" fill-rule="evenodd"/><g><g><g><g><path d="M15.4695 12.0218C15.4695 11.8243 15.6304 11.6636 15.8284 11.6636L27.2271 11.6636C27.4251 11.6636 27.5859 11.8243 27.5859 12.0218 27.5859 12.2195 27.4251 12.3801 27.2271 12.3801L15.8284 12.3801C15.6304 12.3801 15.4695 12.22 15.4695 12.0218ZM15.8284 14.1021 27.2271 14.1021C27.4251 14.1021 27.5859 13.9416 27.5859 13.7439 27.5859 13.5461 27.4251 13.3857 27.2271 13.3857L15.8284 13.3857C15.6304 13.3857 15.4695 13.5461 15.4695 13.7439 15.4695 13.9416 15.6304 14.1021 15.8284 14.1021ZM15.8284 15.8243 27.2271 15.8243C27.4251 15.8243 27.5859 15.6636 27.5859 15.4661 27.5859 15.2683 27.4251 15.1077 27.2271 15.1077L15.8284 15.1077C15.6304 15.1077 15.4695 15.2683 15.4695 15.4661 15.4695 15.6636 15.6304 15.8243 15.8284 15.8243ZM15.8284 17.5464 27.2271 17.5464C27.4251 17.5464 27.5859 17.3857 27.5859 17.188 27.5859 16.9905 27.4251 16.8298 27.2271 16.8298L15.8284 16.8298C15.6304 16.8298 15.4695 16.9905 15.4695 17.188 15.4695 17.3857 15.6304 17.5464 15.8284 17.5464ZM15.8284 19.2686 27.0957 19.2686C27.2934 19.2686 27.4544 19.1079 27.4544 18.9101 27.4544 18.7126 27.2934 18.552 27.0957 18.552L15.8284 18.552C15.6304 18.552 15.4695 18.7126 15.4695 18.9101 15.4695 19.1079 15.6304 19.2686 15.8284 19.2686ZM15.8284 20.9905 26.1223 20.9905C26.3201 20.9905 26.4809 20.8298 26.4809 20.6323 26.4809 20.4346 26.3201 20.2739 26.1223 20.2739L15.8284 20.2739C15.6304 20.2739 15.4695 20.4346 15.4695 20.6323 15.4695 20.8298 15.6304 20.9905 15.8284 20.9905ZM15.8284 22.7126 25.8037 22.7126C26.0014 22.7126 26.1624 22.552 26.1624 22.3545 26.1624 22.1567 26.0014 21.9961 25.8037 21.9961L15.8284 21.9961C15.6304 21.9961 15.4695 22.1567 15.4695 22.3545 15.4695 22.552 15.6304 22.7126 15.8284 22.7126ZM15.8284 24.4348 26.0183 24.4348C26.2161 24.4348 26.3769 24.2742 26.3769 24.0764 26.3769 23.8789 26.2161 23.7183 26.0183 23.7183L15.8284 23.7183C15.6304 23.7183 15.4695 23.8789 15.4695 24.0764 15.4695 24.2742 15.6304 24.4348 15.8284 24.4348ZM26.4492 25.4404 15.8284 25.4404C15.6304 25.4404 15.4695 25.6008 15.4695 25.7986 15.4695 25.9963 15.6304 26.1567 15.8284 26.1567L26.4492 26.1567C26.6472 26.1567 26.8081 25.9963 26.8081 25.7986 26.8081 25.6008 26.6472 25.4404 26.4492 25.4404ZM37.2556 30.8955C37.1343 30.9971 36.9609 31.0073 36.8289 30.9206L34.5664 29.4392 34.0493 32.0916C34.0188 32.2463 33.8909 32.3633 33.7336 32.3794 33.7212 32.3806 33.7093 32.3814 33.6973 32.3814 33.5537 32.3814 33.4229 32.2952 33.3667 32.1616L31.4917 27.6836 29.6121 32.1616C29.5559 32.2959 29.4243 32.3814 29.2815 32.3814 29.2695 32.3814 29.2568 32.3806 29.2444 32.3794 29.0872 32.3633 28.9592 32.2463 28.9287 32.0916L28.4116 29.4399 26.1492 30.9214C26.0171 31.0078 25.8438 30.9978 25.7224 30.8962 25.6011 30.7947 25.5603 30.6262 25.6226 30.4807L25.928 29.7646 12.4497 29.7646C12.2519 29.7646 12.0911 29.604 12.0911 29.4065L12.0911 6.06323C12.0911 5.86548 12.2519 5.70483 12.4497 5.70483L18.126 5.70483 18.126 5.0105C18.126 4.23243 18.7595 3.6001 19.5381 3.6001L24.0401 3.6001C24.8189 3.6001 25.4521 4.23291 25.4521 5.0105L25.4521 5.70434 31.1282 5.70434C31.3262 5.70434 31.4868 5.86499 31.4868 6.0625L31.4868 17.6216C31.4876 17.6216 31.4876 17.6216 31.4881 17.6216 34.0972 17.6216 36.2197 19.7414 36.2197 22.3472 36.2197 23.4771 35.8203 24.5154 35.1555 25.3294L37.3543 30.48C37.4173 30.6257 37.3772 30.7947 37.2556 30.8955ZM31.4888 18.3389C29.2754 18.3389 27.4746 20.1372 27.4746 22.3479 27.4746 24.5584 29.2754 26.3569 31.4888 26.3569 33.7019 26.3569 35.5027 24.5584 35.5027 22.3479 35.5027 20.1372 33.7019 18.3389 31.4888 18.3389ZM27.8216 25.3298C27.1565 24.5159 26.7573 23.4776 26.7573 22.3479 26.7573 20.6638 27.6445 19.1836 28.9758 18.3464L28.9758 7.87644 28.3267 7.87644 28.3267 8.76931C28.3267 8.96706 28.1658 9.12744 27.968 9.12744L15.6106 9.12744C15.4128 9.12744 15.2519 8.96706 15.2519 8.76931L15.2519 7.87644 14.6026 7.87644 14.6026 27.5923 26.8594 27.5811ZM30.77 6.42137 28.3267 6.42137 28.3267 7.16012 29.3347 7.16012C29.5325 7.16012 29.6934 7.32056 29.6934 7.51831L29.6934 17.9763C30.0342 17.8359 30.3945 17.7339 30.77 17.6765ZM15.9695 6.42137 15.9695 8.41088 27.6086 8.41088 27.6086 6.42137 25.0933 6.42137C24.8955 6.42137 24.7346 6.26075 24.7346 6.06323L24.7346 5.0105C24.7346 4.62769 24.4231 4.31665 24.0401 4.31665L19.5381 4.31665C19.1548 4.31665 18.8433 4.62769 18.8433 5.0105L18.8433 6.0625C18.8433 6.26025 18.6824 6.42088 18.4846 6.42088L15.9695 6.42088ZM26.2334 29.0481 26.5539 28.2981 14.2446 28.3096C14.2446 28.3096 14.2446 28.3096 14.2439 28.3096 14.1489 28.3096 14.0574 28.272 13.9905 28.2044 13.9229 28.1374 13.8853 28.0461 13.8853 27.9512L13.8853 7.51831C13.8853 7.32056 14.0461 7.16012 14.2439 7.16012L15.2519 7.16012 15.2519 6.42137 12.8084 6.42137 12.8084 29.0481ZM30.9805 27.0459C29.9822 26.9389 29.0764 26.5205 28.3618 25.8906L26.7471 29.6721 28.4649 28.5479C28.5644 28.4819 28.6907 28.4707 28.8008 28.5173 28.9106 28.5639 28.9907 28.6619 29.0137 28.7788L29.407 30.7959ZM36.2305 29.6721 34.6155 25.8906C33.9016 26.52 32.9978 26.938 32.0017 27.0454L33.5711 30.7934 33.9639 28.7783C33.9866 28.6611 34.0666 28.5632 34.1768 28.5166 34.2866 28.4702 34.4128 28.4819 34.5127 28.5471ZM29.0662 22.6314 30.8867 24.0364C30.9519 24.0867 31.0291 24.1111 31.1062 24.1111 31.2036 24.1111 31.2998 24.0718 31.3704 23.9954L33.9561 21.1858C34.0901 21.0401 34.0806 20.8132 33.9346 20.6794 33.7888 20.5456 33.562 20.5552 33.4275 20.7009L31.0649 23.2686 29.5051 22.0647C29.3484 21.9436 29.1231 21.9729 29.0017 22.1291 28.8809 22.2856 28.9094 22.5103 29.0662 22.6314Z" fill="#FFFFFF" transform="matrix(1 0 0 1.02778 908 111)"/></g></g></g></g></g></svg>